<svg version="1.1" id="Layer_1" xmlns="http://www.w3.org/2000/svg" xmlns:xlink="http://www.w3.org/1999/xlink" x="0px" y="0px"
	 width="100%" viewBox="0 0 784 784" enable-background="new 0 0 784 784" xml:space="preserve">
<path fill="#000000" opacity="1.000000" stroke="none" 
	d="
M156.610168,396.999725 
	C155.919418,299.190399 217.578445,210.168488 306.990814,174.169388 
	C341.122131,160.427460 376.632477,153.883820 413.098907,157.110031 
	C508.305511,165.533066 577.175415,213.143097 618.477173,299.547760 
	C635.954651,336.111053 642.081299,375.208069 638.988403,415.368011 
	C634.214905,477.349915 609.207214,530.119446 563.993164,573.122314 
	C530.517029,604.961304 491.196991,625.882812 445.893799,634.417664 
	C368.449921,649.007446 298.975464,631.077271 239.095932,579.603516 
	C194.838425,541.558838 168.813614,492.788788 159.084610,435.329254 
	C156.968872,422.833832 156.262573,410.186493 156.610168,396.999725 
M186.548782,496.953918 
	C205.523697,537.140930 233.591095,569.546875 270.921265,593.536438 
	C321.707031,626.172913 377.270813,637.536316 436.768066,627.659424 
	C494.525726,618.071167 542.291626,590.185547 579.022400,544.744507 
	C621.375488,492.347778 638.065186,432.159760 628.877319,365.285278 
	C620.950867,307.592194 594.609131,259.359772 550.489258,221.615173 
	C494.780670,173.956360 429.903442,156.479828 357.715424,168.390732 
	C301.619568,177.646439 255.076416,204.977188 218.783112,248.588470 
	C179.370010,295.948578 161.618332,350.882538 165.071030,412.551849 
	C166.711121,441.845764 174.031998,469.664185 186.548782,496.953918 
z"/>
<path fill="#000000" opacity="1.000000" stroke="none" 
	d="
M592.900391,513.807495 
	C565.446228,558.696411 527.623962,590.828796 478.879150,609.687744 
	C446.045441,622.390930 411.890228,626.967468 376.834045,623.400513 
	C306.890594,616.283630 251.618423,583.600464 211.270660,526.286926 
	C186.638748,491.297516 173.331863,452.023499 171.631699,409.113800 
	C168.826660,338.318359 193.478195,278.550385 245.293045,230.442261 
	C279.447815,198.730835 320.155426,179.816742 366.430542,173.713730 
	C431.942963,165.073578 490.882721,181.384903 542.054504,223.111618 
	C584.688904,257.876770 611.265625,302.932922 621.032043,357.146027 
	C631.007202,412.517548 621.524597,464.795471 592.900391,513.807495 
M277.898041,474.636597 
	C315.857147,533.520203 390.844757,555.403320 454.305573,527.621094 
	C515.618469,500.779175 548.989380,437.944092 537.845581,372.197479 
	C526.473145,305.101471 467.196777,254.500504 399.204376,254.426483 
	C358.452789,254.382111 323.544556,268.860229 294.742188,298.051971 
	C249.285324,344.123383 241.709824,420.098267 277.898041,474.636597 
M219.045395,368.326447 
	C225.529800,370.456055 232.043457,372.501923 238.485962,374.751587 
	C241.581146,375.832336 243.726929,375.591553 244.176773,371.859741 
	C244.580368,368.511353 248.336929,364.380463 242.081970,362.497101 
	C236.345062,360.769684 230.602371,359.058899 224.894455,357.239685 
	C223.446701,356.778229 221.531815,356.879364 220.892105,354.840149 
	C222.274261,353.283905 224.029984,353.942963 225.575699,353.982574 
	C231.399582,354.131683 237.228058,354.293121 243.038986,354.684784 
	C246.417404,354.912476 248.347229,353.879730 249.016495,350.344360 
	C249.627060,347.119141 251.281815,344.133972 247.042740,341.815063 
	C241.500031,338.782990 236.216751,335.265137 230.907547,331.824066 
	C229.058014,330.625305 226.570389,330.125183 224.991608,326.668213 
	C231.895416,328.288879 237.930984,329.641327 243.933105,331.128754 
	C254.932144,333.854462 255.551010,333.474182 257.184723,322.271576 
	C257.249939,321.824371 257.026398,321.335052 256.830902,320.303223 
	C243.008575,317.319275 229.055984,314.287964 215.091934,311.310425 
	C212.575287,310.773773 211.656052,312.382355 210.883377,314.501068 
	C206.004181,327.879852 206.030518,327.770630 218.099564,335.507477 
	C221.468811,337.667328 225.572876,338.869843 228.590500,342.660980 
	C224.504013,343.889038 220.874420,343.147064 217.327850,343.149811 
	C202.610168,343.161194 202.727905,343.140594 199.255157,357.314972 
	C198.400314,360.804169 199.483215,362.083954 202.626282,362.985626 
	C207.901917,364.499054 213.081284,366.347961 219.045395,368.326447 
M335.030762,225.256180 
	C333.103790,220.833725 331.226227,216.388931 329.239319,211.993576 
	C325.370819,203.435898 325.345581,203.447922 316.393768,206.104462 
	C316.075012,206.199066 315.748718,206.269760 315.423798,206.341873 
	C312.669037,206.953232 311.837555,208.363342 313.248199,211.010696 
	C319.743103,223.199692 326.185944,235.416428 332.638184,247.628128 
	C333.411255,249.091324 334.474152,249.759674 336.234131,249.707245 
	C346.820374,249.391861 349.550690,246.310577 348.558472,235.767395 
	C348.215912,232.127655 348.015961,228.471573 347.867126,224.818222 
	C347.817902,223.610138 347.195068,222.156387 349.350403,220.809265 
	C351.742432,226.128281 354.094513,231.323624 356.417389,236.531982 
	C359.829681,244.182938 359.767059,243.950592 368.193420,242.035324 
	C372.440704,241.069946 374.551208,239.207962 374.574463,234.751617 
	C374.641388,221.935394 374.889191,209.120193 375.031433,196.304199 
	C375.045898,195.003372 375.138885,193.574493 373.748962,192.753296 
	C370.396759,190.772751 362.094482,195.354340 362.207550,199.248840 
	C362.337860,203.734207 362.878662,208.207047 363.034210,212.692520 
	C363.120422,215.178070 363.945923,217.840134 361.717621,221.325638 
	C359.384857,215.762741 357.408966,211.115723 355.484344,206.447571 
	C351.594269,197.012268 351.645874,197.154846 341.637512,199.881500 
	C338.010986,200.869507 336.806946,202.717270 337.115784,206.291824 
	C337.616791,212.089783 337.916504,217.908051 338.155548,223.723740 
	C338.216339,225.203384 339.042847,227.031570 337.253296,228.133041 
	C335.923981,227.866959 335.741119,226.795944 335.030762,225.256180 
M333.570190,539.937866 
	C331.224365,537.055420 328.373108,534.728394 325.116516,533.021851 
	C314.922180,527.679688 304.701630,527.298584 294.804077,533.692383 
	C285.518555,539.690796 280.906311,548.467285 281.475311,559.441223 
	C282.100769,571.503967 291.835754,582.573547 303.626648,585.565063 
	C316.238190,588.764771 328.326080,584.393921 335.459991,574.529297 
	C341.059998,566.785645 342.724701,549.597473 333.570190,539.937866 
M520.352234,539.970215 
	C519.269958,537.437561 521.276184,536.324463 522.724426,535.074158 
	C525.368774,532.791199 528.078491,530.576904 530.850586,528.450867 
	C533.421509,526.479248 534.156494,524.632019 531.571289,521.956299 
	C529.254761,519.558655 527.369995,517.791016 524.205322,520.849182 
	C521.462585,523.499695 518.250366,525.657898 515.418213,528.224060 
	C512.564697,530.809631 510.678894,529.921326 508.481354,527.235779 
	C506.419922,524.716553 505.242523,522.774719 508.321259,520.166931 
	C512.127197,516.943176 515.675049,513.416138 519.368530,510.057556 
	C521.510498,508.109772 522.541870,506.304688 519.696899,503.976196 
	C517.397034,502.093842 515.841614,499.546631 512.418579,502.917725 
	C505.785309,509.450409 498.857208,515.711487 491.729767,521.702637 
	C488.281738,524.600952 487.935638,526.778503 490.763641,530.319458 
	C499.487061,541.241943 508.038055,552.306641 516.440674,563.478088 
	C518.961243,566.829285 520.946411,566.913757 524.145569,564.391235 
	C532.914001,557.477478 541.152649,549.974609 549.446106,542.522217 
	C551.494934,540.681213 552.580750,538.821167 550.023071,536.798279 
	C547.887390,535.109192 546.669861,530.550903 542.530396,534.008301 
	C538.699524,537.207947 534.841675,540.376404 530.948425,543.499756 
	C525.787109,547.640442 525.765747,547.617004 521.824829,542.261108 
	C521.430786,541.725586 521.070801,541.165100 520.352234,539.970215 
M466.353882,554.860352 
	C463.820404,550.602966 464.934082,547.918274 469.581848,546.073486 
	C473.586395,544.483948 477.306702,542.190552 481.207550,540.323059 
	C483.654175,539.151672 485.079071,537.805359 483.297607,534.993713 
	C481.689545,532.455627 480.633789,529.578796 476.487305,531.700623 
	C467.604401,536.246277 458.584564,540.531433 449.538635,544.747009 
	C446.814789,546.016357 446.308655,547.539429 447.378326,550.233154 
	C452.903229,564.146606 458.366669,578.085144 463.740509,592.057617 
	C464.822723,594.871460 466.291412,595.474854 469.066498,594.374023 
	C479.748779,590.136597 490.052368,585.088013 500.413879,580.149719 
	C503.543091,578.658325 504.170532,576.950012 502.519806,573.919983 
	C500.928375,570.998718 499.775330,568.203918 495.476257,570.324646 
	C490.710846,572.675476 485.678589,574.478821 480.835114,576.680359 
	C478.162415,577.895203 476.237457,577.632690 475.527100,574.560486 
	C474.874908,571.739807 471.047974,568.540100 476.191986,566.184998 
	C479.065521,564.869385 482.102997,563.869019 484.856750,562.346985 
	C487.414276,560.933289 491.793610,560.755188 489.550110,555.522827 
	C487.438843,550.599060 484.554688,551.321533 480.832794,553.181641 
	C477.864929,554.664978 474.715240,555.788208 471.631317,557.034424 
	C469.608551,557.851746 467.708893,558.105774 466.353882,554.860352 
M450.047577,205.742218 
	C448.681854,202.689072 446.282135,200.650757 443.321381,199.345505 
	C435.276886,195.799042 426.679504,194.839478 418.031219,194.205170 
	C415.540100,194.022446 414.528900,195.429428 414.116516,197.739319 
	C411.837250,210.506104 409.517487,223.266022 407.114441,236.009979 
	C406.706146,238.175262 407.091644,239.513641 409.333191,240.187317 
	C418.326660,242.890106 427.494354,244.842239 436.864807,243.446701 
	C447.602051,241.847641 451.670868,231.049591 445.130035,222.509583 
	C444.650024,221.882874 444.314575,221.145462 443.729156,220.148224 
	C448.903900,216.920624 452.053375,212.769043 450.047577,205.742218 
M273.269928,229.727570 
	C270.666687,231.823944 268.320374,234.161423 266.483734,236.975052 
	C260.887695,245.547806 261.494232,256.039734 268.094482,264.869812 
	C274.254608,273.111115 283.756317,276.389069 293.194519,273.529022 
	C306.583954,269.471619 315.601440,256.397003 313.260681,244.633011 
	C310.195374,229.227722 293.133362,215.363998 273.269928,229.727570 
M401.487854,593.053040 
	C401.756317,596.365479 402.151184,599.674072 402.253784,602.991638 
	C402.337433,605.696411 403.217834,608.204773 406.127228,607.403015 
	C410.599609,606.170410 416.335327,609.507263 419.537231,603.905029 
	C419.966461,603.154053 419.650269,601.938232 419.575500,600.945435 
	C419.363068,598.126221 419.158783,595.304016 418.836670,592.496094 
	C418.410522,588.781494 419.827667,586.980286 423.721588,586.701965 
	C427.686035,586.418579 431.593933,585.414185 435.555359,585.001343 
	C441.028870,584.430847 438.713989,580.606934 438.625153,577.846008 
	C438.526581,574.783630 437.221802,572.770996 433.600952,573.379272 
	C430.158844,573.957520 426.693237,574.411194 423.226532,574.823242 
	C420.152130,575.188538 417.073822,575.608582 416.763397,570.995972 
	C416.507477,567.193054 416.523743,564.084045 421.645844,563.737244 
	C426.276520,563.423584 430.862396,562.453796 435.469482,561.783508 
	C436.778778,561.593140 438.550964,561.702881 438.906616,560.262817 
	C439.686493,557.105347 438.789093,553.978394 437.563202,551.080688 
	C436.431824,548.406372 433.889008,549.283997 431.846252,549.546814 
	C423.108948,550.671265 414.397614,551.999878 405.657043,553.096313 
	C399.039398,553.926453 398.949951,554.001465 399.422882,560.759094 
	C400.154144,571.208374 400.769745,581.665771 401.487854,593.053040 
M383.563904,584.128540 
	C383.523010,582.033752 384.677399,579.919373 383.461578,577.645386 
	C378.638458,576.636780 373.788177,575.549988 368.906830,574.627625 
	C365.735535,574.028442 364.184021,572.638000 365.028442,569.141663 
	C365.824738,565.844788 366.568390,562.928040 371.058594,563.848022 
	C375.456787,564.749207 379.919159,565.336914 384.317413,566.237732 
	C387.374084,566.863770 389.920868,567.183289 390.618225,563.039185 
	C391.692383,556.655396 390.993835,554.625671 386.555786,553.757935 
	C377.091492,551.907715 367.588440,550.256531 358.119934,548.427185 
	C354.925659,547.809998 353.135986,548.751465 352.329498,552.061462 
	C348.746216,566.768372 345.142090,581.472534 341.290924,596.110657 
	C340.106476,600.612793 343.201263,601.175903 345.827728,601.285645 
	C349.829559,601.452942 354.307373,607.062500 357.883606,600.612122 
	C358.355682,599.760620 358.495605,598.718140 358.749054,597.753479 
	C359.467773,595.018433 360.207214,592.287842 360.859863,589.536865 
	C361.515472,586.773315 362.936127,585.715454 365.913666,586.384216 
	C369.800964,587.257202 373.820740,587.534058 377.717010,588.375427 
	C380.923218,589.067749 382.942963,588.404602 383.563904,584.128540 
M243.892548,510.501678 
	C235.154770,528.980896 242.382553,546.486267 261.413025,552.935547 
	C268.724762,555.413452 271.618134,553.641663 273.047211,545.811096 
	C258.009216,538.718262 255.075394,535.576477 255.708481,527.243774 
	C256.232208,520.350586 261.093933,513.941772 267.866180,512.376892 
	C278.927094,509.820923 283.983154,517.479858 288.552765,525.796631 
	C290.767639,524.775024 292.705109,523.860229 294.660431,522.985168 
	C296.866547,521.997803 297.588470,520.437622 296.659943,518.153564 
	C292.129425,507.009430 284.156342,499.478302 272.228088,497.695984 
	C260.780518,495.985504 250.818375,499.449036 243.892548,510.501678 
M563.978699,303.332123 
	C576.281555,296.431671 574.492310,299.377258 569.496155,289.037140 
	C568.420593,286.811249 567.073730,286.175476 564.752197,287.433655 
	C552.910339,293.851471 541.024719,300.188477 529.153870,306.552765 
	C527.791443,307.283203 526.271851,308.068878 527.277649,309.942291 
	C529.039124,313.223328 529.971375,317.069855 532.964600,319.309479 
	C538.927856,318.274567 543.084656,311.174316 550.308533,315.072937 
	C548.137390,320.554718 544.738953,324.698853 542.170410,329.306305 
	C541.218079,331.014587 539.687012,332.713501 540.690002,334.837280 
	C542.510925,338.692688 544.181091,342.663971 547.126526,346.175659 
	C549.019226,344.725800 549.842346,342.917603 550.805847,341.215851 
	C554.083008,335.427795 557.500793,329.713776 560.592834,323.828583 
	C562.348572,320.486694 564.435791,319.455994 568.220337,320.428589 
	C574.406372,322.018280 580.742981,323.021698 588.152283,324.498993 
	C586.109131,320.447083 584.489258,317.579285 583.192017,314.572296 
	C581.672852,311.050568 579.483398,309.300934 575.376709,308.858246 
	C570.544922,308.337372 565.433044,308.785553 560.728210,306.504150 
	C560.876160,304.684967 562.246765,304.299194 563.978699,303.332123 
M507.569946,224.909500 
	C506.834351,224.519485 506.036530,224.213928 505.373322,223.725571 
	C501.429932,220.821716 498.975494,221.845078 497.086151,226.280685 
	C495.330078,230.403534 493.084625,234.334824 490.844879,238.229828 
	C488.782715,241.815948 487.389130,245.854095 484.146332,248.687943 
	C479.683441,252.588013 472.854675,250.604385 471.492554,244.964279 
	C470.740692,241.851181 471.933655,239.014084 473.281006,236.343918 
	C475.906128,231.141556 478.758636,226.054504 481.444153,220.881912 
	C485.665833,212.750549 485.584167,212.850769 477.199585,208.696671 
	C474.338531,207.279160 472.712524,207.556534 471.248810,210.474213 
	C467.665466,217.616852 463.746399,224.593185 460.249481,231.776199 
	C458.281586,235.818451 456.934692,240.174454 457.885254,244.799698 
	C460.146057,255.800446 468.663055,259.997681 478.167816,262.300171 
	C486.734039,264.375305 493.655518,260.690735 498.135193,253.310730 
	C502.449341,246.203415 506.040283,238.660965 510.169800,231.435913 
	C511.928741,228.358490 511.359283,226.511063 507.569946,224.909500 
M226.819382,294.654419 
	C236.982620,301.024292 247.144333,307.396637 257.310516,313.761810 
	C259.131744,314.902130 260.967438,316.552032 262.767517,313.706299 
	C267.843689,305.681458 273.042297,297.731018 277.961945,289.611450 
	C280.373840,285.630768 276.110901,285.009308 274.169647,283.459381 
	C272.269775,281.942505 270.202179,280.945312 268.428101,284.034546 
	C266.273407,287.786652 263.763062,291.332703 261.515717,295.034149 
	C260.147888,297.287018 258.817322,298.751556 255.983932,296.905121 
	C253.170319,295.071564 254.096634,293.280731 255.352921,291.021851 
	C257.577118,287.022552 260.878998,283.582611 262.098572,278.871948 
	C259.205109,276.916382 256.775726,274.649139 253.141113,273.798492 
	C250.598465,277.854706 248.138306,281.790253 245.666183,285.718292 
	C244.474289,287.612183 243.105942,288.756805 240.771729,287.227539 
	C238.486435,285.730286 238.863724,284.039520 240.081161,282.124207 
	C242.136566,278.890594 244.020248,275.537994 246.229340,272.414520 
	C248.896332,268.643677 246.331146,267.227600 243.644104,265.496368 
	C240.880157,263.715607 238.831787,263.078430 236.754715,266.625427 
	C232.801346,273.376556 228.638992,280.023773 224.207932,286.469757 
	C221.637253,290.209412 222.316559,292.495972 226.819382,294.654419 
M581.199158,370.418915 
	C581.493652,366.948608 581.654602,363.459595 582.136047,360.015442 
	C582.396179,358.154327 582.403320,355.592560 585.096558,355.503510 
	C587.327515,355.429749 587.793091,357.584320 588.450256,359.293457 
	C589.557800,362.173431 589.484314,365.181671 589.371460,368.165833 
	C589.242493,371.575500 591.411987,372.038635 593.936890,371.789154 
	C596.439575,371.541901 600.364319,373.425934 600.644287,368.943848 
	C601.202209,360.010437 599.309814,351.573364 592.558044,345.186371 
	C585.090637,338.122406 574.259216,341.128906 571.013794,350.931366 
	C569.863037,354.407196 569.332214,358.021637 569.289856,361.713654 
	C569.261841,364.153198 569.648254,367.456909 566.483398,367.843658 
	C563.032898,368.265320 562.664795,364.722229 561.920227,362.287231 
	C560.702393,358.304565 560.982544,354.148499 561.325684,350.307953 
	C559.516418,348.847198 557.778931,349.442963 556.173767,349.221802 
	C551.281128,348.547729 549.760681,350.860321 549.895508,355.490997 
	C550.088196,362.110992 551.321838,368.343567 554.811829,374.048950 
	C558.243225,379.658508 563.001709,382.698608 569.760925,381.782959 
	C575.989990,380.939117 579.352295,376.976746 581.199158,370.418915 
M504.355652,267.969604 
	C501.627319,281.553253 508.987793,290.436401 518.588501,298.168274 
	C521.012695,300.120636 523.624573,302.281158 526.496521,298.152191 
	C528.935425,294.645844 530.182556,291.861145 525.423767,289.373993 
	C524.138062,288.702026 523.071716,287.513733 522.068848,286.412842 
	C515.935059,279.679016 515.919617,271.956726 521.972473,266.513947 
	C527.996460,261.097076 535.082947,261.743408 541.275757,268.482483 
	C543.482239,270.883667 545.303589,273.638763 547.418091,276.384705 
	C549.012146,275.570801 550.355835,274.942810 551.644104,274.216644 
	C556.517395,271.469788 556.890503,270.274139 553.587036,265.782349 
	C551.524475,262.977783 549.215210,260.290070 546.679871,257.908447 
	C531.979492,244.099380 511.925903,248.566818 504.355652,267.969604 
M568.752014,435.968994 
	C564.302979,437.084473 559.587769,435.391876 554.904846,436.992981 
	C556.542053,439.450134 558.596436,441.008575 560.725342,442.138214 
	C565.551514,444.699097 566.228271,448.181274 564.261047,452.924927 
	C563.350586,455.120239 562.362793,457.463074 562.720032,460.398987 
	C566.073364,459.622528 568.350830,457.541626 570.712646,455.871704 
	C574.160217,453.434113 577.029114,453.712463 580.132568,456.338257 
	C582.237061,458.118835 584.465698,459.835388 587.779541,460.906830 
	C587.161621,457.996338 586.992859,455.461304 586.076660,453.233704 
	C583.894897,447.929138 585.715332,444.405182 590.260620,441.547760 
	C592.240295,440.303223 594.179138,438.794067 595.740173,435.927551 
	C592.155579,435.927551 589.315369,435.720032 586.517334,435.975311 
	C582.125854,436.375946 579.640564,434.700714 578.679016,430.303467 
	C578.143250,427.853912 577.507751,425.260071 575.485474,423.115234 
	C572.496643,427.087982 572.309021,431.947876 568.752014,435.968994 
M230.701614,455.460205 
	C225.297882,445.926361 233.736893,442.157990 239.927612,436.375092 
	C235.756760,436.170197 232.993164,435.805237 230.257462,435.953827 
	C226.155014,436.176666 223.674042,434.766052 222.740280,430.529907 
	C222.190292,428.034821 221.663345,425.342926 219.460190,423.354340 
	C217.386505,425.621582 216.745148,428.436462 215.866928,431.055603 
	C214.575989,434.905640 212.393173,436.703827 208.127457,436.363525 
	C205.176163,436.128052 202.013535,435.595734 198.377533,437.253662 
	C201.473160,439.691772 203.952194,441.882477 206.671112,443.717896 
	C209.325912,445.510071 209.867767,447.536621 208.839722,450.526398 
	C207.799057,453.552765 206.382446,456.586731 206.681488,460.108612 
	C209.624817,459.803284 211.641663,458.212189 213.487061,456.655701 
	C217.487350,453.281738 221.079788,453.398987 224.949738,456.874573 
	C226.606201,458.362305 228.374374,460.062164 230.910309,460.123779 
	C231.811234,458.730286 230.796768,457.484619 230.701614,455.460205 
z"/>
<path fill="#000000" opacity="1.000000" stroke="none" 
	d="
M345.771729,313.821350 
	C340.157013,316.097198 338.905823,320.792511 338.346802,325.680939 
	C337.742615,330.964539 337.598022,336.299622 337.198456,341.608154 
	C336.922272,345.277527 336.477325,348.773010 333.396454,351.527588 
	C309.477020,372.914001 298.497101,400.844269 293.217072,431.597748 
	C291.214569,443.261078 289.909485,454.997620 289.945587,466.858032 
	C289.949982,468.303711 290.206421,469.882721 289.033997,471.108612 
	C274.573944,464.115662 260.272888,409.101532 264.982483,378.682770 
	C274.236115,318.914734 317.537598,274.553589 375.997345,264.951111 
	C432.094604,255.736710 489.664642,285.395813 515.321899,336.476929 
	C538.994629,383.607117 529.915771,436.729034 508.415253,465.898346 
	C506.488525,463.753845 507.085785,461.176514 506.965851,458.828400 
	C505.531158,430.737823 500.036346,403.713135 486.039307,378.921661 
	C479.413696,367.186432 470.882935,357.012360 460.362152,348.597198 
	C457.753265,346.510468 456.730133,344.201935 456.600586,340.952423 
	C456.348907,334.640015 456.108856,328.293396 454.727631,322.093903 
	C452.913483,313.951111 446.768005,311.341431 439.791992,315.792816 
	C435.111328,318.779602 431.545654,323.045502 427.844421,327.090912 
	C425.681732,329.454681 423.537811,330.108185 420.358002,329.398346 
	C405.005432,325.971344 389.627014,326.137604 374.350220,329.934601 
	C370.858582,330.802399 368.230560,330.095673 365.939209,327.320831 
	C362.540161,323.204529 358.905273,319.286438 354.441833,316.280182 
	C351.953613,314.604248 349.373657,313.000397 345.771729,313.821350 
M413.202454,295.714661 
	C415.169830,293.985199 417.137207,292.255768 419.613983,290.078522 
	C415.507874,289.058899 412.031006,289.264374 408.616913,289.403351 
	C405.288605,289.538849 403.430481,288.408783 402.414093,285.082031 
	C401.576813,282.341522 401.118286,279.301483 399.119293,276.832794 
	C396.946075,278.467163 396.788361,280.760254 396.001434,282.687653 
	C392.889709,290.308899 392.925659,290.277924 384.814880,290.222992 
	C382.666107,290.208435 380.345154,289.508423 377.750000,291.171844 
	C380.799286,293.545258 383.311737,295.716705 386.042999,297.564789 
	C388.672485,299.343994 389.330536,301.378143 388.243256,304.366272 
	C387.130798,307.423553 386.411102,310.623779 385.164368,315.011169 
	C388.968597,312.786285 391.804016,311.448761 394.264282,309.609436 
	C397.475830,307.208374 400.165192,307.432526 403.211639,309.897522 
	C405.282471,311.573120 407.256897,313.773743 410.340515,313.901367 
	C411.242676,310.980042 410.118622,308.538422 409.338257,306.322449 
	C407.766815,301.860016 408.595184,298.584045 413.202454,295.714661 
z"/>
<path fill="#000000" opacity="1.000000" stroke="none" 
	d="
M353.576538,435.414307 
	C350.190552,433.582764 347.114807,431.934570 344.014648,430.333679 
	C342.437927,429.519440 340.886505,428.550293 341.863678,426.545441 
	C342.709351,424.810333 344.497040,425.251129 345.841705,425.870483 
	C349.598297,427.600891 353.271667,429.512024 357.057922,431.391602 
	C359.376862,430.242828 359.723083,427.718597 360.836548,425.768829 
	C367.941833,413.327271 377.162018,403.041870 391.761169,400.119293 
	C408.494598,396.769501 421.075500,404.595459 431.214081,417.208466 
	C434.140808,420.849518 436.541260,424.865509 438.589417,429.067047 
	C439.832153,431.616364 441.367432,432.004761 443.711334,430.358429 
	C446.980896,428.061890 450.364899,425.922424 454.153015,424.533386 
	C455.811737,423.925110 457.577332,423.514801 458.446655,425.539856 
	C459.389282,427.735809 457.528503,428.509247 456.003632,429.110657 
	C449.669281,431.608917 444.286133,435.357849 440.061005,440.741089 
	C437.509033,443.992554 436.043427,447.600098 436.020294,451.775208 
	C435.985016,458.151215 439.435577,460.979370 445.652039,459.458496 
	C450.284790,458.325104 454.132324,455.675140 457.768646,452.704742 
	C459.316010,451.440704 460.793823,450.089630 462.368011,448.861084 
	C463.490692,447.984894 464.784271,447.511292 465.917511,448.814545 
	C467.027771,450.091278 466.443268,451.291199 465.459137,452.353210 
	C461.330811,456.808441 456.528625,460.390839 450.951385,462.764160 
	C448.108429,463.973938 446.969543,465.707611 446.851318,468.796143 
	C446.228668,485.064819 442.329071,500.336548 432.957794,513.973572 
	C427.542938,521.853271 421.286469,527.706604 410.852234,527.927856 
	C401.368500,528.128845 391.919464,528.602478 382.435120,527.794373 
	C377.948578,527.412231 374.647064,525.308655 371.652557,522.239441 
	C357.639526,507.876892 351.968536,490.110596 350.927673,470.612213 
	C350.715698,466.641602 349.764160,464.188660 346.066254,462.416016 
	C341.859680,460.399597 338.350098,457.222809 335.074371,453.879089 
	C334.104218,452.888794 333.305237,451.603973 334.332825,450.325500 
	C335.589081,448.762573 336.998383,449.591980 338.262482,450.548706 
	C341.711426,453.158997 345.017426,455.989594 348.638977,458.332825 
	C353.671173,461.588684 359.528290,461.852051 362.217590,459.376923 
	C365.027863,456.790558 365.186035,451.346527 362.490601,445.800781 
	C360.492798,441.690369 357.700958,438.205505 353.576538,435.414307 
M377.901886,421.345642 
	C375.282898,421.244843 372.790222,421.325592 372.249054,424.731018 
	C372.068970,425.864258 371.065247,426.196716 370.195129,426.706177 
	C365.701141,429.337402 365.273682,433.921112 369.145905,437.472870 
	C371.493988,439.626556 373.302399,448.264984 371.254822,450.270996 
	C368.933990,452.544830 369.097992,455.020447 369.317596,457.603912 
	C369.795685,463.229340 370.540314,468.831512 371.092834,474.451385 
	C371.433929,477.920837 370.569275,482.637115 372.951111,484.476593 
	C377.077332,487.663422 376.460754,491.736450 377.082245,495.580933 
	C378.060913,501.635406 378.837372,507.767181 379.039429,513.888062 
	C379.194153,518.574219 381.691986,519.598206 385.452271,519.394775 
	C395.267212,518.863831 405.086639,518.930176 414.878387,519.550537 
	C419.218872,519.825439 421.041443,518.104309 421.364624,514.093140 
	C421.471405,512.768311 421.391113,511.385895 421.749481,510.130676 
	C424.241241,501.403595 420.115204,491.029755 428.299988,483.693298 
	C428.692749,483.341278 428.631042,482.436859 428.704620,481.781067 
	C429.668762,473.192261 430.637909,464.603943 431.556488,456.010193 
	C431.731537,454.372314 431.777191,452.832703 430.284149,451.461731 
	C428.067047,449.425873 427.577362,440.054535 430.009003,438.404968 
	C434.227844,435.543060 434.316925,430.604004 432.327423,428.472107 
	C429.630463,425.582153 427.662933,420.935303 421.747314,421.163727 
	C407.456573,421.715576 393.130219,421.344757 377.901886,421.345642 
z"/>
<path fill="#000000" opacity="1.000000" stroke="none" 
	d="
M403.510498,363.201660 
	C403.877045,361.717712 404.185272,360.364532 405.655304,360.540649 
	C407.074280,360.710602 407.150574,362.074463 407.199799,363.271210 
	C407.429504,368.856598 403.842957,371.597748 398.987366,369.363831 
	C397.567047,368.710388 396.601776,368.605347 395.462158,369.684967 
	C393.388062,371.649872 391.257019,372.176971 388.974304,369.883270 
	C386.531616,367.428864 385.958069,364.805420 387.373749,361.672058 
	C390.311798,361.575165 389.632965,365.652588 392.288361,365.931213 
	C394.704834,365.536011 394.446564,362.270264 397.310883,361.515533 
	C399.492340,360.333618 399.650452,368.429962 403.510498,363.201660 
z"/>
<path fill="#000000" opacity="1.000000" stroke="none" 
	d="
M352.350708,338.441193 
	C349.209473,340.112305 347.583893,339.610016 347.790253,336.071899 
	C347.960541,333.152832 347.494080,330.106049 349.560913,327.268738 
	C353.221802,328.792969 355.540131,331.579651 357.523499,334.689270 
	C356.472656,337.002533 354.239197,337.174347 352.350708,338.441193 
z"/>
<path fill="#000000" opacity="1.000000" stroke="none" 
	d="
M337.160767,372.313232 
	C335.304504,371.518463 334.182770,370.535278 334.933350,368.736450 
	C335.591370,367.159424 337.094208,367.330078 338.390869,367.619812 
	C341.795471,368.380646 345.190857,369.197906 348.553436,370.124908 
	C350.077271,370.544983 351.447845,371.511871 350.896851,373.347076 
	C350.362305,375.127380 348.748688,375.257996 347.179901,374.879639 
	C343.948425,374.100250 340.734711,373.247192 337.160767,372.313232 
z"/>
<path fill="#000000" opacity="1.000000" stroke="none" 
	d="
M464.414062,381.819519 
	C460.075409,384.212341 455.531219,383.349152 451.204193,383.980927 
	C449.896759,384.171753 448.554474,383.501984 448.230347,381.945770 
	C447.940643,380.554962 448.824524,379.673920 450.024261,379.430389 
	C454.219055,378.579071 458.486877,378.320770 462.747284,378.592346 
	C464.209381,378.685547 464.957886,379.896576 464.414062,381.819519 
z"/>
<path fill="#000000" opacity="1.000000" stroke="none" 
	d="
M336.613647,382.039154 
	C334.474213,381.501709 332.196564,381.381775 332.636627,378.817322 
	C332.997284,376.715363 335.011139,376.746796 336.652679,376.845490 
	C339.784912,377.033813 342.909760,377.366821 346.031586,377.696930 
	C347.601837,377.862976 349.142426,378.359894 348.918732,380.329651 
	C348.693146,382.316193 346.960541,382.315491 345.472351,382.307281 
	C342.661621,382.291809 339.851440,382.170410 336.613647,382.039154 
z"/>
<path fill="#000000" opacity="1.000000" stroke="none" 
	d="
M446.204590,374.630249 
	C447.958893,372.012207 458.567017,368.249695 460.773590,369.158264 
	C462.456787,369.851318 463.021973,371.096222 461.889282,372.683044 
	C460.367249,374.815277 448.941284,376.455292 446.204590,374.630249 
z"/>
<path fill="#000000" opacity="1.000000" stroke="none" 
	d="
M442.068054,337.022400 
	C440.355865,336.031738 438.645020,335.703217 437.472595,333.985504 
	C438.506287,330.856995 440.957062,328.908966 443.870911,327.021088 
	C446.255890,329.803223 445.411865,333.090454 445.648346,335.999329 
	C445.831299,338.249603 443.850189,337.710571 442.068054,337.022400 
z"/>
<path fill="#000000" opacity="1.000000" stroke="none" 
	d="
M313.066071,541.784058 
	C321.760315,543.185120 325.884949,547.930969 325.210632,556.176025 
	C324.607086,563.555359 320.987518,569.387451 314.249817,572.826660 
	C309.825836,575.084839 305.583435,574.322144 301.710785,571.216797 
	C297.832245,568.106934 296.303680,564.019165 297.347809,559.295898 
	C299.235107,550.758423 303.003906,543.648621 313.066071,541.784058 
z"/>
<path fill="#000000" opacity="1.000000" stroke="none" 
	d="
M429.569946,233.258621 
	C422.005127,233.275208 421.452972,232.832275 422.491943,227.822357 
	C422.949127,225.617722 422.976501,222.821045 426.320190,223.184219 
	C429.478333,223.527222 432.745728,224.323242 433.732697,227.891586 
	C434.538544,230.805206 432.784760,232.513870 429.569946,233.258621 
z"/>
<path fill="#000000" opacity="1.000000" stroke="none" 
	d="
M429.048340,205.796631 
	C429.964722,205.835632 430.477142,205.826508 430.954132,205.952118 
	C433.072998,206.510132 435.243073,207.108612 435.993683,209.508286 
	C436.449982,210.967056 435.711426,212.226425 434.427856,212.841248 
	C432.059021,213.975891 429.461731,213.969391 427.167877,212.862671 
	C424.678558,211.661652 425.436157,208.336731 429.048340,205.796631 
z"/>
<path fill="#000000" opacity="1.000000" stroke="none" 
	d="
M276.229828,249.330795 
	C275.177917,243.793076 276.735138,239.766861 281.441101,237.193375 
	C286.330353,234.519653 290.567688,236.255783 294.173492,239.609207 
	C298.624298,243.748459 301.680267,248.786942 299.677612,255.135269 
	C298.313324,259.459930 294.781067,262.138092 290.255371,262.063873 
	C283.695618,261.956360 279.808014,257.641327 277.128448,252.086502 
	C276.770996,251.345535 276.602356,250.513474 276.229828,249.330795 
z"/>
<path fill="#000000" opacity="1.000000" stroke="none" 
	d="
M401.000000,483.049225 
	C393.834839,483.061310 387.164337,482.916443 380.506470,483.142822 
	C376.347931,483.284210 374.338715,481.652527 374.016388,477.508606 
	C373.500092,470.871460 372.839020,464.244598 372.160034,457.621521 
	C371.896301,455.049225 372.965729,453.847473 375.490112,453.844299 
	C391.819550,453.823853 408.149048,453.825134 424.478363,453.774445 
	C427.603760,453.764771 428.578430,455.392853 428.288635,458.222198 
	C427.559601,465.339996 426.824799,472.457214 426.126526,479.578064 
	C425.841644,482.482849 423.817261,482.942810 421.494476,482.959839 
	C414.829773,483.008698 408.164825,483.021942 401.000000,483.049225 
z"/>
<path fill="#000000" opacity="1.000000" stroke="none" 
	d="
M378.541138,429.617218 
	C394.626221,429.612427 410.265228,429.585083 425.904114,429.603607 
	C427.782654,429.605835 430.400391,428.909210 430.485107,431.937561 
	C430.572388,435.058594 427.876373,434.369171 426.039734,434.384155 
	C409.091583,434.522217 392.142914,434.618866 375.194244,434.648865 
	C373.052917,434.652649 369.854523,435.465851 369.989716,431.875397 
	C370.107452,428.749329 373.133484,429.688934 375.111206,429.446259 
	C376.084503,429.326782 377.099091,429.543793 378.541138,429.617218 
z"/>
</svg>